<svg width="28" height="28" viewBox="0 0 28 28" fill="none" xmlns="http://www.w3.org/2000/svg">
<path fill-rule="evenodd" clip-rule="evenodd" d="M8.625 23.2771H19.375V25.6354C19.375 26.172 19.8101 26.6071 20.3467 26.6071H22.8558C23.3924 26.6071 23.8276 26.172 23.8276 25.6383V23.2771H24.6861C25.2256 23.2771 25.6665 22.8391 25.6665 22.2996V15.6425V6.36307C25.6665 6.31198 25.6656 6.26111 25.6637 6.21047V6.07011H25.656C25.5055 3.98444 23.7609 2.33398 21.6374 2.33398H6.36519C4.24176 2.33398 2.49716 3.98444 2.34664 6.07011H2.33325V15.6425H2.3361V22.2996C2.3361 22.8391 2.77411 23.2771 3.31364 23.2771H4.1724V25.6354C4.1724 26.172 4.60751 26.6071 5.14414 26.6071H7.65326C8.18699 26.6071 8.625 26.172 8.625 25.6383V23.2771ZM3.20631 15.6425V22.2996C3.20631 22.3576 3.25563 22.4069 3.31364 22.4069H4.1724V22.4069H8.625V22.4069H19.375V22.4069H23.8276V22.4069H24.689C24.747 22.4069 24.7963 22.3576 24.7963 22.2996V15.6425H3.20631ZM3.20631 14.7722H24.7935V6.94032H3.20631V14.7722ZM3.21979 6.07011H24.7829C24.6346 4.46389 23.2793 3.2042 21.6374 3.2042H6.36519C4.72078 3.2042 3.36802 4.46624 3.21979 6.07011ZM5.04262 25.6383V23.28H7.75478V25.6383C7.75478 25.6934 7.70837 25.7398 7.65326 25.7398H5.14414C5.08903 25.7398 5.04262 25.6934 5.04262 25.6383ZM20.2452 23.28V25.6383C20.2452 25.6934 20.2916 25.7398 20.3467 25.7398H22.8558C22.9109 25.7398 22.9573 25.6934 22.9573 25.6383V23.28H20.2452ZM6.93963 20.8986C5.89537 20.8986 5.04256 20.0487 5.04256 19.0015C5.04256 17.9544 5.89247 17.1045 6.93963 17.1045C7.98678 17.1045 8.83669 17.9544 8.83669 19.0015C8.83669 20.0487 7.98388 20.8986 6.93963 20.8986ZM6.93963 17.9776C6.37399 17.9776 5.91278 18.4388 5.91278 19.0044C5.91278 19.5701 6.37399 20.0313 6.93963 20.0313C7.50527 20.0313 7.96648 19.5701 7.96648 19.0044C7.96648 18.4359 7.50527 17.9776 6.93963 17.9776ZM19.163 19.0015C19.163 20.0487 20.0159 20.8986 21.0601 20.8986C22.1044 20.8986 22.9572 20.0487 22.9572 19.0015C22.9572 17.9544 22.1073 17.1045 21.0601 17.1045C20.013 17.1045 19.163 17.9544 19.163 19.0015ZM20.0333 19.0044C20.0333 18.4388 20.4945 17.9776 21.0601 17.9776C21.6258 17.9776 22.0841 18.4359 22.087 19.0044C22.087 19.5701 21.6258 20.0313 21.0601 20.0313C20.4945 20.0313 20.0333 19.5701 20.0333 19.0044Z" fill="#00708A"/>
<path d="M19.375 23.2771H19.625V23.0271H19.375V23.2771ZM8.625 23.2771V23.0271H8.375V23.2771H8.625ZM23.8276 23.2771V23.0271H23.5776V23.2771H23.8276ZM25.6637 6.21047L25.4135 6.21047L25.4139 6.21982L25.6637 6.21047ZM25.6637 6.07011H25.9137V5.82011H25.6637V6.07011ZM25.656 6.07011L25.4066 6.0881L25.4234 6.32011H25.656V6.07011ZM2.34664 6.07011V6.32011H2.57924L2.59599 6.0881L2.34664 6.07011ZM2.33325 6.07011V5.82011H2.08325V6.07011H2.33325ZM2.33325 15.6425H2.08325V15.8925H2.33325V15.6425ZM2.3361 15.6425H2.5861V15.3925H2.3361V15.6425ZM4.1724 23.2771H4.4224V23.0271H4.1724V23.2771ZM3.20631 15.6425V15.3925H2.95631V15.6425H3.20631ZM4.1724 22.4069V22.6569H4.4224V22.4069H4.1724ZM4.1724 22.4069V22.1569H3.9224V22.4069H4.1724ZM8.625 22.4069H8.875V22.1569H8.625V22.4069ZM8.625 22.4069H8.375V22.6569H8.625V22.4069ZM19.375 22.4069V22.6569H19.625V22.4069H19.375ZM19.375 22.4069V22.1569H19.125V22.4069H19.375ZM23.8276 22.4069H24.0776V22.1569H23.8276V22.4069ZM23.8276 22.4069H23.5776V22.6569H23.8276V22.4069ZM24.7963 15.6425H25.0463V15.3925H24.7963V15.6425ZM24.7935 14.7722V15.0222H25.0435V14.7722H24.7935ZM3.20631 14.7722H2.95631V15.0222H3.20631V14.7722ZM24.7935 6.94032H25.0435V6.69032H24.7935V6.94032ZM3.20631 6.94032V6.69032H2.95631V6.94032H3.20631ZM24.7829 6.07011V6.32011H25.057L25.0318 6.04712L24.7829 6.07011ZM3.21979 6.07011L2.97085 6.0471L2.94562 6.32011H3.21979V6.07011ZM5.04262 23.28V23.03H4.79262V23.28H5.04262ZM7.75478 23.28H8.00478V23.03H7.75478V23.28ZM20.2452 23.28V23.03H19.9952V23.28H20.2452ZM22.9573 23.28H23.2073V23.03H22.9573V23.28ZM22.087 19.0044H22.337L22.337 19.0031L22.087 19.0044ZM19.375 23.0271H8.625V23.5271H19.375V23.0271ZM19.625 25.6354V23.2771H19.125V25.6354H19.625ZM20.3467 26.3571C19.9481 26.3571 19.625 26.0339 19.625 25.6354H19.125C19.125 26.3101 19.672 26.8571 20.3467 26.8571V26.3571ZM22.8558 26.3571H20.3467V26.8571H22.8558V26.3571ZM23.5776 25.6383C23.5776 26.0334 23.2549 26.3571 22.8558 26.3571V26.8571C23.53 26.8571 24.0776 26.3105 24.0776 25.6383H23.5776ZM23.5776 23.2771V25.6383H24.0776V23.2771H23.5776ZM24.6861 23.0271H23.8276V23.5271H24.6861V23.0271ZM25.4165 22.2996C25.4165 22.7001 25.0885 23.0271 24.6861 23.0271V23.5271C25.3627 23.5271 25.9165 22.9782 25.9165 22.2996H25.4165ZM25.4165 15.6425V22.2996H25.9165V15.6425H25.4165ZM25.4165 6.36307V15.6425H25.9165V6.36307H25.4165ZM25.4139 6.21982C25.4156 6.26734 25.4165 6.3151 25.4165 6.36307H25.9165C25.9165 6.30886 25.9155 6.25488 25.9135 6.20113L25.4139 6.21982ZM25.4137 6.07011V6.21047H25.9137V6.07011H25.4137ZM25.656 6.32011H25.6637V5.82011H25.656V6.32011ZM21.6374 2.58398C23.6288 2.58398 25.2655 4.13216 25.4066 6.0881L25.9054 6.05211C25.7455 3.83672 23.893 2.08398 21.6374 2.08398V2.58398ZM6.36519 2.58398H21.6374V2.08398H6.36519V2.58398ZM2.59599 6.0881C2.73715 4.13216 4.37387 2.58398 6.36519 2.58398V2.08398C4.10964 2.08398 2.25717 3.83672 2.09728 6.05211L2.59599 6.0881ZM2.33325 6.32011H2.34664V5.82011H2.33325V6.32011ZM2.58325 15.6425V6.07011H2.08325V15.6425H2.58325ZM2.3361 15.3925H2.33325V15.8925H2.3361V15.3925ZM2.5861 22.2996V15.6425H2.0861V22.2996H2.5861ZM3.31364 23.0271C2.91218 23.0271 2.5861 22.7011 2.5861 22.2996H2.0861C2.0861 22.9772 2.63604 23.5271 3.31364 23.5271V23.0271ZM4.1724 23.0271H3.31364V23.5271H4.1724V23.0271ZM4.4224 25.6354V23.2771H3.9224V25.6354H4.4224ZM5.14414 26.3571C4.74558 26.3571 4.4224 26.0339 4.4224 25.6354H3.9224C3.9224 26.3101 4.46944 26.8571 5.14414 26.8571V26.3571ZM7.65326 26.3571H5.14414V26.8571H7.65326V26.3571ZM8.375 25.6383C8.375 26.0329 8.04989 26.3571 7.65326 26.3571V26.8571C8.32409 26.8571 8.875 26.311 8.875 25.6383H8.375ZM8.375 23.2771V25.6383H8.875V23.2771H8.375ZM3.45631 22.2996V15.6425H2.95631V22.2996H3.45631ZM3.31364 22.1569C3.39369 22.1569 3.45631 22.2195 3.45631 22.2996H2.95631C2.95631 22.4957 3.11756 22.6569 3.31364 22.6569V22.1569ZM4.1724 22.1569H3.31364V22.6569H4.1724V22.1569ZM3.9224 22.4069V22.4069H4.4224V22.4069H3.9224ZM8.625 22.1569H4.1724V22.6569H8.625V22.1569ZM8.875 22.4069V22.4069H8.375V22.4069H8.875ZM19.375 22.1569H8.625V22.6569H19.375V22.1569ZM19.125 22.4069V22.4069H19.625V22.4069H19.125ZM23.8276 22.1569H19.375V22.6569H23.8276V22.1569ZM24.0776 22.4069V22.4069H23.5776V22.4069H24.0776ZM24.689 22.1569H23.8276V22.6569H24.689V22.1569ZM24.5463 22.2996C24.5463 22.2195 24.6089 22.1569 24.689 22.1569V22.6569C24.8851 22.6569 25.0463 22.4957 25.0463 22.2996H24.5463ZM24.5463 15.6425V22.2996H25.0463V15.6425H24.5463ZM3.20631 15.8925H24.7963V15.3925H3.20631V15.8925ZM24.7935 14.5222H3.20631V15.0222H24.7935V14.5222ZM24.5435 6.94032V14.7722H25.0435V6.94032H24.5435ZM3.20631 7.19032H24.7935V6.69032H3.20631V7.19032ZM3.45631 14.7722V6.94032H2.95631V14.7722H3.45631ZM24.7829 5.82011H3.21979V6.32011H24.7829V5.82011ZM21.6374 3.4542C23.1489 3.4542 24.3974 4.61433 24.5339 6.09309L25.0318 6.04712C24.8717 4.31344 23.4096 2.9542 21.6374 2.9542V3.4542ZM6.36519 3.4542H21.6374V2.9542H6.36519V3.4542ZM3.46873 6.09312C3.6052 4.61642 4.85138 3.4542 6.36519 3.4542V2.9542C4.59019 2.9542 3.13083 4.31606 2.97085 6.0471L3.46873 6.09312ZM4.79262 23.28V25.6383H5.29262V23.28H4.79262ZM7.75478 23.03H5.04262V23.53H7.75478V23.03ZM8.00478 25.6383V23.28H7.50478V25.6383H8.00478ZM7.65326 25.9898C7.84645 25.9898 8.00478 25.8314 8.00478 25.6383H7.50478C7.50478 25.5553 7.5703 25.4898 7.65326 25.4898V25.9898ZM5.14414 25.9898H7.65326V25.4898H5.14414V25.9898ZM4.79262 25.6383C4.79262 25.8314 4.95096 25.9898 5.14414 25.9898V25.4898C5.2271 25.4898 5.29262 25.5553 5.29262 25.6383H4.79262ZM20.4952 25.6383V23.28H19.9952V25.6383H20.4952ZM20.3467 25.4898C20.4297 25.4898 20.4952 25.5553 20.4952 25.6383H19.9952C19.9952 25.8314 20.1535 25.9898 20.3467 25.9898V25.4898ZM22.8558 25.4898H20.3467V25.9898H22.8558V25.4898ZM22.7073 25.6383C22.7073 25.5553 22.7729 25.4898 22.8558 25.4898V25.9898C23.049 25.9898 23.2073 25.8314 23.2073 25.6383H22.7073ZM22.7073 23.28V25.6383H23.2073V23.28H22.7073ZM20.2452 23.53H22.9573V23.03H20.2452V23.53ZM4.79256 19.0015C4.79256 20.187 5.75755 21.1486 6.93963 21.1486V20.6486C6.03319 20.6486 5.29256 19.9104 5.29256 19.0015H4.79256ZM6.93963 16.8545C5.7544 16.8545 4.79256 17.8163 4.79256 19.0015H5.29256C5.29256 18.0924 6.03054 17.3545 6.93963 17.3545V16.8545ZM9.08669 19.0015C9.08669 17.8163 8.12486 16.8545 6.93963 16.8545V17.3545C7.84871 17.3545 8.58669 18.0924 8.58669 19.0015H9.08669ZM6.93963 21.1486C8.12171 21.1486 9.08669 20.187 9.08669 19.0015H8.58669C8.58669 19.9104 7.84606 20.6486 6.93963 20.6486V21.1486ZM6.16278 19.0044C6.16278 18.5769 6.51206 18.2276 6.93963 18.2276V17.7276C6.23592 17.7276 5.66278 18.3007 5.66278 19.0044H6.16278ZM6.93963 19.7813C6.51206 19.7813 6.16278 19.432 6.16278 19.0044H5.66278C5.66278 19.7081 6.23592 20.2813 6.93963 20.2813V19.7813ZM7.71648 19.0044C7.71648 19.432 7.3672 19.7813 6.93963 19.7813V20.2813C7.64334 20.2813 8.21648 19.7081 8.21648 19.0044H7.71648ZM6.93963 18.2276C7.36766 18.2276 7.71648 18.5744 7.71648 19.0044H8.21648C8.21648 18.2973 7.64288 17.7276 6.93963 17.7276V18.2276ZM21.0601 20.6486C20.1537 20.6486 19.413 19.9104 19.413 19.0015H18.913C18.913 20.187 19.878 21.1486 21.0601 21.1486V20.6486ZM22.7072 19.0015C22.7072 19.9104 21.9665 20.6486 21.0601 20.6486V21.1486C22.2422 21.1486 23.2072 20.187 23.2072 19.0015H22.7072ZM21.0601 17.3545C21.9692 17.3545 22.7072 18.0924 22.7072 19.0015H23.2072C23.2072 17.8163 22.2453 16.8545 21.0601 16.8545V17.3545ZM19.413 19.0015C19.413 18.0924 20.151 17.3545 21.0601 17.3545V16.8545C19.8749 16.8545 18.913 17.8163 18.913 19.0015H19.413ZM21.0601 17.7276C20.3564 17.7276 19.7833 18.3007 19.7833 19.0044H20.2833C20.2833 18.5769 20.6325 18.2276 21.0601 18.2276V17.7276ZM22.337 19.0031C22.3334 18.2982 21.7645 17.7276 21.0601 17.7276V18.2276C21.487 18.2276 21.8348 18.5735 21.837 19.0057L22.337 19.0031ZM21.0601 20.2813C21.7638 20.2813 22.337 19.7081 22.337 19.0044H21.837C21.837 19.432 21.4877 19.7813 21.0601 19.7813V20.2813ZM19.7833 19.0044C19.7833 19.7081 20.3564 20.2813 21.0601 20.2813V19.7813C20.6325 19.7813 20.2833 19.432 20.2833 19.0044H19.7833Z" fill="#00708A"/>
</svg>
