<svg width="32" height="32" viewBox="0 0 32 32" fill="none" xmlns="http://www.w3.org/2000/svg">
<path fill-rule="evenodd" clip-rule="evenodd" d="M4 15.0539C4 18.6312 5.89333 21.7805 8.79867 23.7659C8.79733 24.9059 8.8 26.4419 8.8 28.0539L13.508 25.7245C14.3133 25.8792 15.1453 25.9632 16 25.9632C22.6027 25.9632 28 21.1059 28 15.0539C28 9.00186 22.6027 4.14453 16 4.14453C9.39733 4.14453 4 9.00186 4 15.0539Z" stroke="#008197" stroke-width="1.5" stroke-linecap="round" stroke-linejoin="round"/>
<path d="M15.8653 16.436V16.16C15.8653 15.256 16.424 14.7666 16.984 14.3906C17.5307 14.0226 18.0787 13.5426 18.0787 12.6573C18.0787 11.4346 17.088 10.4453 15.8667 10.4453C14.6453 10.4453 13.6533 11.4333 13.6533 12.656" stroke="#008197" stroke-width="1.5" stroke-linecap="round" stroke-linejoin="round"/>
<path d="M15.8641 19.5546C15.7534 19.5546 15.6641 19.6439 15.6654 19.7546C15.6654 19.8652 15.7547 19.9546 15.8654 19.9546C15.9761 19.9546 16.0654 19.8652 16.0654 19.7546C16.0654 19.6439 15.9774 19.5546 15.8641 19.5546" stroke="#008197" stroke-width="1.5" stroke-linecap="round" stroke-linejoin="round"/>
</svg>
