<svg width="32" height="32" viewBox="0 0 32 32" fill="none" xmlns="http://www.w3.org/2000/svg">
<path fill-rule="evenodd" clip-rule="evenodd" d="M25.3334 22.6673H24.0001C23.2641 22.6673 22.6667 22.07 22.6667 21.334V14.6673C22.6667 13.9313 23.2641 13.334 24.0001 13.334H25.3334C26.8067 13.334 28.0001 14.5273 28.0001 16.0007V20.0007C28.0001 21.474 26.8067 22.6673 25.3334 22.6673Z" stroke="#0095AE" stroke-width="1.5" stroke-linecap="round" stroke-linejoin="round"/>
<path fill-rule="evenodd" clip-rule="evenodd" d="M8 22.6673H6.66667C5.19333 22.6673 4 21.474 4 20.0007V16.0007C4 14.5273 5.19333 13.334 6.66667 13.334H8C8.736 13.334 9.33333 13.9313 9.33333 14.6673V21.334C9.33333 22.07 8.736 22.6673 8 22.6673Z" stroke="#0095AE" stroke-width="1.5" stroke-linecap="round" stroke-linejoin="round"/>
<path d="M24.6666 13.3333V12.6667C24.6666 7.88 20.7866 4 15.9999 4V4C11.2133 4 7.33325 7.88 7.33325 12.6667V13.3333" stroke="#0095AE" stroke-width="1.5" stroke-linecap="round" stroke-linejoin="round"/>
<path fill-rule="evenodd" clip-rule="evenodd" d="M16.8333 28.3333H15.1667C14.2467 28.3333 13.5 27.5867 13.5 26.6667V26.6667C13.5 25.7467 14.2467 25 15.1667 25H16.8333C17.7533 25 18.5 25.7467 18.5 26.6667V26.6667C18.5 27.5867 17.7533 28.3333 16.8333 28.3333Z" stroke="#0095AE" stroke-width="1.5" stroke-linecap="round" stroke-linejoin="round"/>
<path d="M18.5 26.666H21.3333C22.8067 26.666 24 25.4727 24 23.9993V22.666" stroke="#0095AE" stroke-width="1.5" stroke-linecap="round" stroke-linejoin="round"/>
</svg>
