<svg width="32" height="32" viewBox="0 0 32 32" fill="none" xmlns="http://www.w3.org/2000/svg">
<circle cx="16" cy="16" r="16" fill="#B83493"/>
<path fill-rule="evenodd" clip-rule="evenodd" d="M22.9306 9.06594C23.3503 9.4854 23.6777 9.98786 23.8919 10.5412C24.139 11.1976 24.2708 11.8917 24.2816 12.593C24.3334 13.4787 24.3334 13.7656 24.3334 16.0267C24.3334 18.2877 24.3214 18.57 24.2816 19.4603C24.2677 20.1526 24.1372 20.8357 23.8938 21.4835C23.6793 22.0367 23.3517 22.5392 22.9322 22.9588C22.5126 23.3783 22.0101 23.7058 21.4569 23.9204C20.8093 24.163 20.1252 24.2941 19.4337 24.3082C18.5499 24.3591 18.2602 24.3591 16.0001 24.3591C13.74 24.3591 13.4577 24.3471 12.5664 24.3082C11.8736 24.2854 11.1897 24.1445 10.5442 23.8917C9.99077 23.6775 9.48814 23.3502 9.06838 22.9308C8.64862 22.5114 8.32097 22.009 8.10637 21.4557C7.86296 20.807 7.73246 20.1239 7.71858 19.4316C7.66675 18.5459 7.66675 18.2581 7.66675 15.998C7.66675 13.737 7.67878 13.4547 7.71858 12.5643C7.7321 11.8728 7.86324 11.1887 8.10637 10.5412C8.32037 9.98772 8.6477 9.48513 9.06736 9.06563C9.48702 8.64613 9.98973 8.31899 10.5432 8.1052C11.19 7.86142 11.8736 7.72995 12.5646 7.71648C13.4484 7.6665 13.7381 7.6665 15.9982 7.6665C18.2583 7.6665 18.5406 7.67761 19.4319 7.71648C20.1234 7.73068 20.8075 7.86212 21.4551 8.1052C22.0084 8.31924 22.511 8.64647 22.9306 9.06594ZM22.4768 20.9254C22.6613 20.4249 22.7587 19.8965 22.7647 19.3632V19.3641H22.7749C22.8146 18.4793 22.8146 18.2368 22.8146 15.9824V15.9823C22.8146 13.7268 22.8045 13.4797 22.7647 12.5995C22.7561 12.0721 22.6587 11.5499 22.4768 11.0548C22.3378 10.6949 22.125 10.368 21.8521 10.0951C21.5792 9.82221 21.2523 9.60941 20.8924 9.47033C20.3975 9.28622 19.8747 9.18885 19.3467 9.1825C18.4518 9.13159 18.2204 9.13159 15.9649 9.13159C13.7094 9.13159 13.4623 9.1427 12.5822 9.1825C12.0546 9.18987 11.5322 9.28721 11.0375 9.47033C10.3072 9.74984 9.7288 10.3246 9.44651 11.0548C9.26202 11.555 9.16466 12.0831 9.15868 12.6162C9.10963 13.513 9.10963 13.7434 9.10963 15.9989C9.10963 18.2535 9.11888 18.5015 9.15868 19.3807C9.1673 19.9081 9.2646 20.4303 9.44651 20.9254C9.58611 21.286 9.79985 21.6133 10.0739 21.8861C10.348 22.1589 10.6762 22.3711 11.0375 22.509C11.532 22.693 12.0545 22.7904 12.5822 22.7968C13.4781 22.8477 13.7085 22.8477 15.9649 22.8477C18.2195 22.8477 18.4675 22.8375 19.3467 22.7968C19.8746 22.79 20.3974 22.6926 20.8924 22.509C21.2523 22.3702 21.5793 22.1576 21.8522 21.8849C22.1251 21.6122 22.3378 21.2853 22.4768 20.9254ZM20.4422 12.5532C20.9932 12.5532 21.4399 12.1065 21.4399 11.5555C21.4399 11.0045 20.9932 10.5578 20.4422 10.5578C19.8912 10.5578 19.4445 11.0045 19.4445 11.5555C19.4445 12.1065 19.8912 12.5532 20.4422 12.5532ZM15.993 11.7129C14.8579 11.7129 13.7694 12.1637 12.9668 12.9663C12.1643 13.7689 11.7134 14.8574 11.7134 15.9924C11.7134 17.1275 12.1643 18.216 12.9668 19.0186C13.7694 19.8211 14.8579 20.272 15.993 20.272C17.128 20.272 18.2165 19.8211 19.0191 19.0186C19.8217 18.216 20.2725 17.1275 20.2725 15.9924C20.2725 14.8574 19.8217 13.7689 19.0191 12.9663C18.2165 12.1637 17.128 11.7129 15.993 11.7129ZM15.993 18.7718C15.2556 18.7718 14.5484 18.4788 14.027 17.9574C13.5056 17.436 13.2127 16.7289 13.2127 15.9915C13.2127 15.2541 13.5056 14.547 14.027 14.0256C14.5484 13.5042 15.2556 13.2113 15.993 13.2113C16.7303 13.2113 17.4375 13.5042 17.9589 14.0256C18.4803 14.547 18.7732 15.2541 18.7732 15.9915C18.7732 16.7289 18.4803 17.436 17.9589 17.9574C17.4375 18.4788 16.7303 18.7718 15.993 18.7718Z" fill="white"/>
</svg>
