<svg width="28" height="28" viewBox="0 0 28 28" fill="none" xmlns="http://www.w3.org/2000/svg">
<path d="M24.8126 13.6883C25.9516 14.8273 25.9516 16.674 24.8126 17.813C23.6735 18.9521 21.8268 18.9521 20.6878 17.813C19.5487 16.674 19.5487 14.8273 20.6878 13.6883C21.8268 12.5492 23.6735 12.5492 24.8126 13.6883" stroke="#008197" stroke-width="1.5" stroke-linecap="round" stroke-linejoin="round"/>
<path d="M7.00016 3.5H4.66683C3.37766 3.5 2.3335 4.54417 2.3335 5.83333V10.5C2.3335 14.3663 5.46716 17.5 9.3335 17.5C13.1998 17.5 16.3335 14.3663 16.3335 10.5V5.83333C16.3335 4.54417 15.2893 3.5 14.0002 3.5H11.6668" stroke="#008197" stroke-width="1.5" stroke-linecap="round" stroke-linejoin="round"/>
<path d="M22.7502 18.6667V18.9583C22.7502 22.6637 19.7472 25.6667 16.0418 25.6667C12.3365 25.6667 9.3335 22.6637 9.3335 18.9583V17.5" stroke="#008197" stroke-width="1.5" stroke-linecap="round" stroke-linejoin="round"/>
<path d="M6.99984 2.33398V4.66732" stroke="#008197" stroke-width="1.5" stroke-linecap="round" stroke-linejoin="round"/>
<path d="M11.6668 2.33398V4.66732" stroke="#008197" stroke-width="1.5" stroke-linecap="round" stroke-linejoin="round"/>
</svg>
