<svg width="28" height="29" viewBox="0 0 28 29" fill="none" xmlns="http://www.w3.org/2000/svg">
<path d="M15.2385 6.97781C15.9225 7.66176 15.9225 8.77055 15.2385 9.45334C14.5546 10.1361 13.4458 10.1373 12.763 9.45334C12.0802 8.76939 12.0791 7.66059 12.763 6.97781C13.4458 6.29386 14.5546 6.29386 15.2385 6.97781" stroke="#008197" stroke-width="1.5" stroke-linecap="round" stroke-linejoin="round"/>
<path d="M19.9443 8.35649V8.35649C19.9443 9.97183 19.2265 11.502 17.987 12.5361L16.0378 14.1607C15.2605 14.8085 14.6804 15.6594 14.3606 16.6199L14 17.6984L13.6405 16.6188C13.3207 15.6594 12.7394 14.8073 11.9633 14.1596L10.0141 12.5349C8.7723 11.5008 8.05566 9.97066 8.05566 8.35649V8.35649V8.38683C8.05566 4.67762 11.1264 2.52539 14 2.52539C16.8735 2.52539 19.9443 4.67762 19.9443 8.38683" stroke="#008197" stroke-width="1.5" stroke-linecap="round" stroke-linejoin="round"/>
<path d="M12.5996 24.7016L14.0002 23.301L12.5996 21.9004" stroke="#008197" stroke-width="1.5" stroke-linecap="round" stroke-linejoin="round"/>
<path d="M21.0031 16.1855C23.146 16.9314 24.5046 18.0086 24.5046 19.2155C24.5046 20.9335 21.7734 22.4018 17.9102 23.0052" stroke="#008197" stroke-width="1.5" stroke-linecap="round" stroke-linejoin="round"/>
<path d="M6.99706 16.1855C4.85417 16.9314 3.49561 18.0086 3.49561 19.2155C3.49561 21.4716 8.19806 23.3005 14 23.3005" stroke="#008197" stroke-width="1.5" stroke-linecap="round" stroke-linejoin="round"/>
</svg>
