<svg width="32" height="32" viewBox="0 0 32 32" fill="none" xmlns="http://www.w3.org/2000/svg">
<circle cx="16" cy="16" r="16" fill="#0077B5"/>
<path d="M11.8333 10.1667C11.8333 11.0517 11.2417 11.8133 10.1658 11.8133C9.15334 11.8133 8.5 11.095 8.5 10.21C8.5 9.30167 9.13333 8.5 10.1667 8.5C11.2 8.5 11.8133 9.25834 11.8333 10.1667ZM8.5 23.5V12.6667H11.8333V23.5H8.5Z" fill="white"/>
<path d="M13.4998 16.371C13.4998 15.0835 13.4573 14.0077 13.4148 13.0785H16.4098L16.5581 14.5143H16.6215C17.0431 13.8385 18.0765 12.8477 19.8065 12.8477C21.9165 12.8477 23.4998 14.2602 23.4998 17.2993V23.501H20.1665V17.7835C20.1665 16.4552 19.6606 15.4418 18.4998 15.4418C17.6148 15.4418 17.1715 16.1585 16.939 16.7493C16.854 16.961 16.8331 17.256 16.8331 17.5518V23.501H13.4998V16.371Z" fill="white"/>
</svg>
