<svg width="28" height="28" viewBox="0 0 28 28" fill="none" xmlns="http://www.w3.org/2000/svg">
<path fill-rule="evenodd" clip-rule="evenodd" d="M14.0001 4.08268C11.37 4.08268 8.84767 5.12747 6.98794 6.98721C5.1282 8.84694 4.08341 11.3693 4.08341 13.9993C4.08341 15.3016 4.33992 16.5911 4.83828 17.7943C5.33663 18.9974 6.06709 20.0906 6.98794 21.0115C7.90879 21.9323 9.00199 22.6628 10.2051 23.1612C11.4083 23.6595 12.6978 23.916 14.0001 23.916C15.3024 23.916 16.5919 23.6595 17.795 23.1612C18.9982 22.6628 20.0914 21.9323 21.0122 21.0115C21.9331 20.0906 22.6635 18.9974 23.1619 17.7943C23.6602 16.5911 23.9167 15.3016 23.9167 13.9993C23.9167 11.3693 22.872 8.84694 21.0122 6.98721C19.1525 5.12747 16.6301 4.08268 14.0001 4.08268ZM6.16298 6.16225C8.24151 4.08372 11.0606 2.91602 14.0001 2.91602C16.9396 2.91602 19.7587 4.08372 21.8372 6.16225C23.9157 8.24078 25.0834 11.0599 25.0834 13.9993C25.0834 15.4548 24.7967 16.8961 24.2397 18.2408C23.6828 19.5855 22.8664 20.8073 21.8372 21.8364C20.808 22.8656 19.5862 23.682 18.2415 24.239C16.8968 24.796 15.4556 25.0827 14.0001 25.0827C12.5446 25.0827 11.1034 24.796 9.75867 24.239C8.41398 23.682 7.19216 22.8656 6.16298 21.8364C5.1338 20.8073 4.31741 19.5855 3.76042 18.2408C3.20343 16.8961 2.91675 15.4548 2.91675 13.9993C2.91675 11.0599 4.08445 8.24078 6.16298 6.16225ZM13.4167 9.33268C13.4167 9.01052 13.6779 8.74935 14.0001 8.74935H14.0117C14.3339 8.74935 14.5951 9.01052 14.5951 9.33268C14.5951 9.65485 14.3339 9.91602 14.0117 9.91602H14.0001C13.6779 9.91602 13.4167 9.65485 13.4167 9.33268ZM12.2501 13.9993C12.2501 13.6772 12.5112 13.416 12.8334 13.416H14.0001C14.3222 13.416 14.5834 13.6772 14.5834 13.9993V18.0827H15.1667C15.4889 18.0827 15.7501 18.3439 15.7501 18.666C15.7501 18.9882 15.4889 19.2494 15.1667 19.2494H14.0001C13.6779 19.2494 13.4167 18.9882 13.4167 18.666V14.5827H12.8334C12.5112 14.5827 12.2501 14.3215 12.2501 13.9993Z" fill="#00708A" stroke="#00708A" stroke-width="0.2" stroke-linecap="round" stroke-linejoin="round"/>
</svg>
