<svg width="28" height="28" viewBox="0 0 28 28" fill="none" xmlns="http://www.w3.org/2000/svg">
<path fill-rule="evenodd" clip-rule="evenodd" d="M9.14805 5.57219C10.5842 4.61258 12.2727 4.10039 14 4.10039C15.7273 4.10039 17.4157 4.61258 18.8519 5.57219C20.2881 6.5318 21.4075 7.89574 22.0685 9.49152C22.7295 11.0873 22.9025 12.8433 22.5655 14.5373C22.2286 16.2314 21.3969 17.7876 20.1755 19.009L15.2254 23.9591L15.2252 23.9593C15.0644 24.1203 14.8735 24.2479 14.6634 24.335C14.4533 24.4221 14.228 24.4669 14.0006 24.4669C13.7731 24.4669 13.5479 24.4221 13.3377 24.335C13.1276 24.2479 12.9367 24.1203 12.776 23.9593L12.7757 23.9591L7.82443 19.009C6.6031 17.7876 5.77137 16.2314 5.43443 14.5373C5.09749 12.8433 5.27046 11.0873 5.93148 9.49152C6.5925 7.89574 7.71188 6.5318 9.14805 5.57219ZM21.0241 19.8575L20.5908 19.4242L21.0241 19.8575L16.0741 24.8074L16.0739 24.8076C15.8018 25.08 15.4786 25.2961 15.1229 25.4435C14.7671 25.591 14.3857 25.6669 14.0006 25.6669C13.6154 25.6669 13.2341 25.591 12.8783 25.4435C12.5226 25.2961 12.1994 25.0801 11.9273 24.8077L11.927 24.8074L6.97594 19.8575L6.97588 19.8575C5.58673 18.4682 4.64072 16.6983 4.25748 14.7714C3.87425 12.8446 4.07099 10.8473 4.82283 9.03228C5.57468 7.21723 6.84786 5.66589 8.48138 4.57442C10.1149 3.48296 12.0354 2.90039 14 2.90039C15.9646 2.90039 17.8851 3.48296 19.5186 4.57442C21.1521 5.66589 22.4253 7.21723 23.1771 9.03228C23.929 10.8473 24.1257 12.8446 23.7425 14.7714C23.3593 16.6983 22.4132 18.4682 21.0241 19.8575ZM11.9494 10.7828C12.4932 10.2389 13.2309 9.93337 14 9.93337C14.7691 9.93337 15.5067 10.2389 16.0506 10.7828C16.5944 11.3266 16.9 12.0642 16.9 12.8334C16.9 13.6025 16.5944 14.3401 16.0506 14.884C15.5067 15.4278 14.7691 15.7334 14 15.7334C13.2309 15.7334 12.4932 15.4278 11.9494 14.884C11.4055 14.3401 11.1 13.6025 11.1 12.8334C11.1 12.0642 11.4055 11.3266 11.9494 10.7828ZM14 8.73337C12.9126 8.73337 11.8697 9.16533 11.1008 9.93423C10.3319 10.7031 9.89998 11.746 9.89998 12.8334C9.89998 13.9208 10.3319 14.9636 11.1008 15.7325C11.8697 16.5014 12.9126 16.9334 14 16.9334C15.0874 16.9334 16.1302 16.5014 16.8991 15.7325C17.668 14.9636 18.1 13.9208 18.1 12.8334C18.1 11.746 17.668 10.7031 16.8991 9.93423C16.1302 9.16533 15.0874 8.73337 14 8.73337Z" fill="#00708A"/>
</svg>
