<svg width="28" height="28" viewBox="0 0 28 28" fill="none" xmlns="http://www.w3.org/2000/svg">
<path d="M4.18342 4.18342C3.74583 4.621 3.5 5.21449 3.5 5.83333V7C3.5 16.6647 11.3353 24.5 21 24.5H22.1667C22.7855 24.5 23.379 24.2542 23.8166 23.8166C24.2542 23.379 24.5 22.7855 24.5 22.1667V18.3412C24.5001 18.0962 24.423 17.8574 24.2798 17.6587C24.1366 17.46 23.9344 17.3114 23.702 17.234L18.4602 15.4863C18.1938 15.3978 17.9044 15.4083 17.6451 15.5158C17.3858 15.6234 17.174 15.8209 17.0485 16.072L15.7302 18.7052C12.8735 17.4145 10.5855 15.1265 9.29483 12.2698L11.928 10.9515C12.1791 10.826 12.3766 10.6142 12.4842 10.3549C12.5917 10.0956 12.6022 9.80623 12.5137 9.53983L10.766 4.298C10.6887 4.06578 10.5402 3.86377 10.3417 3.72056C10.1433 3.57735 9.90476 3.50019 9.66 3.5H5.83333C5.21449 3.5 4.621 3.74583 4.18342 4.18342Z" stroke="#008197" stroke-width="1.5" stroke-linecap="round" stroke-linejoin="round"/>
</svg>
