<svg width="32" height="32" viewBox="0 0 32 32" fill="none" xmlns="http://www.w3.org/2000/svg">
<path d="M18.8293 13.1733C20.3906 14.7346 20.3906 17.2693 18.8293 18.8333C17.268 20.3946 14.7333 20.3946 13.1693 18.8333C11.608 17.272 11.608 14.7373 13.1693 13.1733C14.7333 11.6093 17.2666 11.6093 18.8293 13.1733" stroke="#008197" stroke-width="2" stroke-linecap="round" stroke-linejoin="round"/>
<path d="M27.9999 21.3333L23.9999 25.3333L21.3333 22.6666" stroke="#008197" stroke-width="2" stroke-linecap="round" stroke-linejoin="round"/>
<path d="M16 25.3334C11.0787 25.3334 6.61467 22.6787 4.59467 18.5494V18.5494C4.20267 17.748 4 16.8787 4 16C4 15.1214 4.20267 14.252 4.59467 13.4507V13.4507C6.61467 9.32135 11.0787 6.66669 16 6.66669C20.9213 6.66669 25.3853 9.32135 27.4053 13.4507V13.4507C27.7973 14.252 28 15.1214 28 16" stroke="#008197" stroke-width="2" stroke-linecap="round" stroke-linejoin="round"/>
</svg>
